<?xml version="1.0" encoding="utf-8"?>
<!-- Generator: Adobe Illustrator 25.0.1, SVG Export Plug-In . SVG Version: 6.00 Build 0)  -->
<svg version="1.1" id="Layer_1" xmlns="http://www.w3.org/2000/svg" xmlns:xlink="http://www.w3.org/1999/xlink" x="0px" y="0px"
	 width="16px" height="16px" viewBox="0 0 16 16" enable-background="new 0 0 16 16" xml:space="preserve">
<g>
	<polygon fill-rule="evenodd" clip-rule="evenodd" fill="#9AA7B0" fill-opacity="0.8" points="7,1 3,5 7,5 	"/>
	<path fill-rule="evenodd" clip-rule="evenodd" fill="#9AA7B0" fill-opacity="0.8" d="M13,8.1c-0.1,0-0.2,0-0.3,0
		c-2.5,0-4.5,2-4.5,4.5c0,0.9,0.3,1.7,0.7,2.4H3V6h5V1h5V8.1z"/>
	<path fill-rule="evenodd" clip-rule="evenodd" fill="#231F20" fill-opacity="0.7" d="M5,12h3v-1H5V12z M5,10h4V9H5V10z M5,8h6V7H5
		V8z"/>
</g>
<path d="M14.8,12.1l0.4-0.7c0,0,0-0.1,0-0.1l-0.9-2.4c0-0.1-0.1-0.1-0.2-0.1l-2.5,0.6c0,0-0.1,0-0.1,0.1l-0.3,0.7h-0.8
	c0,0-0.1,0-0.1,0l-1.8,2c-0.1,0.1-0.1,0.2,0,0.2l1.9,1.8c0,0,0.1,0,0.1,0h0.9l0.3,0.7c0,0,0.1,0.1,0.1,0.1l2.7,0.5c0,0,0,0,0,0
	c0.1,0,0.1,0,0.1-0.1l0.5-2.5c0,0,0-0.1,0-0.1L14.8,12.1z M11.3,10.1l2.2-0.4L12.3,12H9.8L11.3,10.1z M11.5,14.2l-1.7-1.7h2.6l1.3,2
	L11.5,14.2z M14.2,14.2l-1.3-2l1.1-2.2l0.7,2.1L14.2,14.2z"/>
</svg>
