<svg xmlns="http://www.w3.org/2000/svg" width="16" height="16" viewBox="0 0 16 16">
	<title>FolderAssets(Gray)</title>
	<g>
		<rect width="16" height="16" fill="#ffe3ff" opacity="0"/>
		<g>
			<g>
				<polygon points="0 13.25 0 7.751 5 5 10 7.751 10 13.25 5 16 0 13.25" fill="#d8d8d8"/>
				<polygon points="1 8.801 1 12.659 5 14.858 5 11 1 8.801" fill="#71a7c7"/>
				<polygon points="9 8.801 5 11 5 14.858 9 12.659 9 8.801" fill="#71a7c7"/>
				<polygon points="8.379 8 5 9.858 1.621 8 1 8.342 1 8.801 5 11 9 8.801 9 8.342 8.379 8" fill="#d8d8d8"/>
				<polygon points="5 9.858 8.379 8 5 6.142 1.621 8 5 9.858" fill="#71a7c7"/>
			</g>
		</g>
	</g>
</svg>