<svg width="16" height="16" viewBox="0 0 16 16" xmlns="http://www.w3.org/2000/svg">
    <path fill="#25324D" stroke="#548AF7" stroke-linejoin="round" d="M7.5 15.5a1 1 0 0 1-1-1v-4a1 1 0 0 1 1-1h4v6h-4Zm8-5h-4v4h4v-4Z"/>
    <path fill="#43454A"
          d="M5 10.5C5 9.121 6.121 8 7.5 8h4c.652 0 1.208.418 1.414 1H14.5V6A1.5 1.5 0 0 0 13 4.5H8.192L6.3 2.5H3A1.5 1.5 0 0 0 1.5 4v8A1.5 1.5 0 0 0 3 13.5h2v-3Z"/>
    <path fill="none" stroke="#CED0D6" stroke-linecap="round" stroke-linejoin="round"
          d="M14.5 8.5V6A1.5 1.5 0 0 0 13 4.5H8.192L6.3 2.5H3A1.5 1.5 0 0 0 1.5 4v8A1.5 1.5 0 0 0 3 13.5h1.5"/>
</svg>
