<?xml version="1.0" encoding="utf-8"?>
<!-- Generator: Adobe Illustrator 25.0.1, SVG Export Plug-In . SVG Version: 6.00 Build 0)  -->
<svg version="1.1" id="Layer_1" xmlns="http://www.w3.org/2000/svg" xmlns:xlink="http://www.w3.org/1999/xlink" x="0px" y="0px"
	 width="13px" height="13px" viewBox="0 0 13 13" enable-background="new 0 0 13 13" xml:space="preserve">
<path d="M10.9,6.7l0.7-1.2c0-0.1,0-0.1,0-0.2l-1.4-3.9c0-0.1-0.2-0.2-0.3-0.2l-4,1c-0.1,0-0.1,0.1-0.2,0.1L5.3,3.5H4
	c-0.1,0-0.1,0-0.2,0.1L0.9,6.7C0.8,6.8,0.8,7,0.9,7.1L4,10c0,0,0.1,0.1,0.2,0.1h1.4L6,11.1c0,0.1,0.1,0.1,0.2,0.1l4.3,0.7
	c0,0,0,0,0,0c0.1,0,0.2-0.1,0.2-0.2l0.9-4c0-0.1,0-0.1,0-0.2L10.9,6.7z M5.3,3.5l3.4-0.6L6.9,6.4H2.8L5.3,3.5z M5.6,10.1L2.8,7.4
	h4.1l2.1,3.2L5.6,10.1z M10,10l-2-3.1l1.8-3.6l1.2,3.4L10,10z" fill="#9e9e9e"/>
</svg>
