<?xml version="1.0" encoding="utf-8"?>
<!-- Generator: Adobe Illustrator 25.0.1, SVG Export Plug-In . SVG Version: 6.00 Build 0)  -->
<svg version="1.0" id="Layer_1" xmlns="http://www.w3.org/2000/svg" xmlns:xlink="http://www.w3.org/1999/xlink" x="0px" y="0px"
	 width="100px" height="100px" viewBox="0 0 100 100" enable-background="new 0 0 100 100" xml:space="preserve">
<path fill="#9e9e9e" d="M89.4,50.4l5.8-9.9c0.2-0.5,0.3-1.1,0.1-1.6l-11.5-33c-0.4-1-1.4-1.6-2.4-1.3l-33.9,8.3c-0.6,0.2-1.2,0.6-1.4,1.2l-3.6,9
	h-11c-0.6,0-1.1,0.2-1.5,0.7L5.1,50.7c-0.8,0.8-0.7,2.1,0.1,2.9l26,24.8c0.4,0.4,0.9,0.6,1.4,0.6h11.9l3.6,9
	c0.3,0.7,0.9,1.1,1.6,1.3l36.1,6.2c0.1,0,0.2,0,0.3,0c1,0,1.8-0.7,2-1.6l7.3-33.5c0.1-0.5,0-1.1-0.3-1.5L89.4,50.4z M42.4,23.1
	l29.1-5.3L56.2,47.9H21.4L42.4,23.1z M44.5,78.9l-23-22.7h34.8l18.1,27.2L44.5,78.9z M81.8,78.7L64.5,52.1l15.1-30.1l9.8,28.5
	L81.8,78.7z"/>
</svg>
