<?xml version="1.0" encoding="utf-8"?>
<svg version="1.0" id="Layer_1" xmlns="http://www.w3.org/2000/svg" xmlns:xlink="http://www.w3.org/1999/xlink" x="0px" y="0px"
	 width="14px" height="14px" viewBox="0 0 14 14" enable-background="new 0 0 14 14" xml:space="preserve">
<path fill="#6C707E" d="M12.2,7.4L13,6.1c0-0.1,0-0.1,0-0.2l-1.6-4.4c0-0.1-0.2-0.2-0.3-0.2L6.6,2.3c-0.1,0-0.1,0.1-0.2,0.1L5.9,3.8
	H4.4c-0.1,0-0.1,0-0.2,0.1L0.9,7.4c-0.1,0.1-0.1,0.3,0,0.5l3.5,3.3c0,0,0.1,0.1,0.2,0.1h1.6l0.5,1.1c0,0.1,0.1,0.1,0.2,0.1l4.9,0.8
	l0,0c0.1,0,0.2-0.1,0.2-0.2l1-4.5c0-0.1,0-0.1,0-0.2L12.2,7.4z M5.9,3.8l3.8-0.7l-2,4H3.1L5.9,3.8z M6.2,11.3L3.1,8.2h4.6l2.4,3.6
	L6.2,11.3z M11.2,11.1L8.9,7.6l2-4.1l1.4,3.8L11.2,11.1z"/>
</svg>
